<?xml version="1.0" standalone="no"?><!DOCTYPE svg PUBLIC "-//W3C//DTD SVG 1.1//EN" "http://www.w3.org/Graphics/SVG/1.1/DTD/svg11.dtd"><svg t="1598779306603" class="icon" viewBox="0 0 1024 1024" version="1.1" xmlns="http://www.w3.org/2000/svg" p-id="27815" xmlns:xlink="http://www.w3.org/1999/xlink" width="200" height="200"><defs><style type="text/css"></style></defs><path d="M26.56 506.56c0-265.104 214.912-480 480-480 265.104 0 480 214.896 480 480 0 265.104-214.896 480-480 480-265.088 0-480-214.896-480-480z" fill="#FFFFFF" p-id="27816"></path><path d="M74.56 506.56c0-238.592 193.408-432 432-432s432 193.408 432 432-193.408 432-432 432-432-193.408-432-432z" fill="#B22222" p-id="27817"></path><path d="M138.72 496.288C144.448 293.504 313.84 132.96 516.64 138.72c72.08 2 138.432 24.992 194.16 62.144L668.32 241.12a309.696 309.696 0 0 0-153.248-46c-171.6-4.64-315.12 131.136-320 302.72-4.64 171.616 131.152 315.136 302.752 320 171.6 4.64 315.12-130.912 320-302.512a310.368 310.368 0 0 0-7.76-76.304l46.672-44a363.408 363.408 0 0 1 17.68 121.632c-5.744 202.992-175.36 363.328-378.144 357.792C293.504 868.688 132.96 699.072 138.72 496.288z m311.136 86.032l339.664-339.68 40.032 40.032-379.696 379.68-133.12-133.328-20.128-19.904 40.016-40.032 19.904 20.128 93.328 93.104z" fill="#FFFFFF" p-id="27818"></path></svg>